<svg width="40" height="41" viewBox="0 0 40 41" fill="none" xmlns="http://www.w3.org/2000/svg">
<path d="M21.4885 31.2456H21.4935C21.4922 31.2715 21.4885 31.2963 21.4885 31.321C21.4885 32.5567 22.5241 33.5601 23.8018 33.5601C25.0808 33.5601 26.1164 32.5567 26.1164 31.321L26.1127 31.2456H26.1164V25.6934H21.4885V31.2456Z" fill="white"/>
<path d="M32.2852 1.32199H29.2008C28.188 1.32183 27.185 1.5212 26.2492 1.90872C25.3135 2.29625 24.4632 2.86432 23.747 3.58051C23.0308 4.29669 22.4628 5.14696 22.0752 6.08273C21.6877 7.0185 21.4883 8.02145 21.4885 9.03429V18.29H7.91506C5.86996 18.29 3.90862 19.1025 2.46251 20.5486C1.01641 21.9947 0.203995 23.956 0.203995 26.0011V32.1712C0.204322 34.2161 1.01688 36.1771 2.46295 37.6229C3.90902 39.0688 5.87017 39.881 7.91506 39.881H11.0007C13.0457 39.881 15.007 39.0688 16.4533 37.623C17.8995 36.1772 18.7124 34.2162 18.713 32.1712V26.0011C18.713 25.8985 18.7093 25.796 18.7056 25.6934H14.0851V32.1712C14.0838 32.9888 13.7585 33.7726 13.1803 34.3508C12.6021 34.9289 11.8184 35.2543 11.0007 35.2556H7.91506C7.09742 35.2543 6.31364 34.9289 5.73548 34.3508C5.15732 33.7726 4.83194 32.9888 4.83063 32.1712V26.0011C4.83194 25.1835 5.15732 24.3997 5.73548 23.8215C6.31364 23.2434 7.09742 22.918 7.91506 22.9167H32.2865C34.332 22.9167 36.2938 22.1042 37.7403 20.6579C39.1869 19.2116 39.9997 17.2499 40 15.2044V9.03552C39.9993 6.98976 39.1863 5.02798 37.7396 3.58152C36.2929 2.13506 34.331 1.32232 32.2852 1.32199ZM35.3709 15.2044C35.3699 16.0224 35.0445 16.8067 34.466 17.3852C33.8876 17.9636 33.1033 18.2891 32.2852 18.29H26.1151V9.03552C26.1161 8.21746 26.4415 7.43318 27.02 6.85472C27.5985 6.27626 28.3827 5.95085 29.2008 5.94986H32.2852C33.1033 5.95085 33.8876 6.27626 34.466 6.85472C35.0445 7.43318 35.3699 8.21746 35.3709 9.03552V15.2044Z" fill="white"/>
</svg>
